<?xml version="1.0" encoding="utf-8"?>
<!-- Generator: Adobe Illustrator 21.0.0, SVG Export Plug-In . SVG Version: 6.00 Build 0)  -->
<svg version="1.1" id="Layer_1" xmlns="http://www.w3.org/2000/svg" xmlns:xlink="http://www.w3.org/1999/xlink" x="0px" y="0px"
	 viewBox="0 0 283.5 170.1" style="enable-background:new 0 0 283.5 170.1;" xml:space="preserve">
<style type="text/css">
	.st0{fill:#1B1464;}
	.st1{fill:#0071BC;}
	.st2{fill:#0071BC;stroke:#0071BC;stroke-miterlimit:10;}
	.st3{font-family:'MyriadPro-Regular';}
	.st4{font-size:21.2689px;}
</style>
<path class="st0" d="M137.1,133.8c-10.6,6.4-23.5,10.2-37.5,10.2c-36.5,0-66.1-26-66.1-58c0-28.2,22.9-51.6,53.2-56.9V3.2
	C41.9,8.1,6.3,40.9,4.3,81.9c-2.2,45.7,38.3,84.3,90.3,86.2c32.9,1.2,62.5-12.5,80.4-34.3H137.1z"/>
<path class="st1" d="M178.9,3.2c-1.8-0.1-3.6-0.1-5.3-0.1v0h-28.9v91.5h28.9V29.6c0.7,0,1.5,0,2.2,0c39.6,0,71.8,26.9,71.8,60
	c0,18.6-10.1,35.1-25.9,46.1h38.7c9.8-12.5,15.8-27.3,16.6-43.3C279.3,45.2,235.4,5.2,178.9,3.2z"/>
<text transform="matrix(1.2387 0 0 1 96.2046 124.3574)" class="st2 st3 st4">Code Dairy</text>
</svg>
