<?xml version="1.0" encoding="utf-8"?>
<!-- Generator: Adobe Illustrator 21.0.0, SVG Export Plug-In . SVG Version: 6.00 Build 0)  -->
<svg version="1.1" id="Layer_1" xmlns="http://www.w3.org/2000/svg" xmlns:xlink="http://www.w3.org/1999/xlink" x="0px" y="0px"
	 viewBox="0 0 283.5 170.1" style="enable-background:new 0 0 283.5 170.1;" xml:space="preserve">
<style type="text/css">
	.st0{fill:#E6E6E6;}
	.st1{fill:#FF0000;stroke:#FF0000;stroke-miterlimit:10;}
	.st2{fill:#E6E6E6;stroke:#E6E6E6;stroke-miterlimit:10;}
</style>
<path class="st0" d="M137.1,133.8c-10.6,6.4-23.5,10.2-37.5,10.2c-36.5,0-66.1-26-66.1-58c0-28.2,22.9-51.6,53.2-56.9V3.2
	C41.9,8.1,6.3,40.9,4.3,81.9c-2.2,45.7,38.3,84.3,90.3,86.2c32.9,1.2,62.5-12.5,80.4-34.3H137.1z"/>
<g>
	<path class="st1" d="M72,119c-1.2,0.7-3.7,1.4-6.9,1.4c-7.4,0-12.9-5.1-12.9-14.5c0-9,5.6-15.1,13.7-15.1c3.3,0,5.3,0.8,6.2,1.3
		l-0.8,3C70,94.5,68.2,94,66,94c-6.1,0-10.2,4.3-10.2,11.8c0,7,3.7,11.5,10.1,11.5c2.1,0,4.2-0.5,5.5-1.2L72,119z"/>
	<path class="st1" d="M92.7,109.5c0,7.6-4.8,10.9-9.4,10.9c-5.1,0-9-4.1-9-10.6c0-6.9,4.1-10.9,9.3-10.9
		C89.1,98.9,92.7,103.2,92.7,109.5z M77.8,109.7c0,4.5,2.4,7.9,5.7,7.9c3.3,0,5.7-3.4,5.7-8c0-3.5-1.6-7.9-5.6-7.9
		C79.6,101.7,77.8,105.8,77.8,109.7z"/>
	<path class="st1" d="M113.3,89.8v24.9c0,1.8,0,3.9,0.2,5.3h-3.1l-0.2-3.6h-0.1c-1,2.3-3.3,4-6.4,4c-4.5,0-8-4.2-8-10.5
		c0-6.8,3.8-11.1,8.4-11.1c2.9,0,4.8,1.5,5.7,3.1h0.1V89.8H113.3z M109.9,107.8c0-0.5,0-1.1-0.2-1.6c-0.5-2.4-2.4-4.3-4.9-4.3
		c-3.5,0-5.6,3.4-5.6,8c0,4.2,1.9,7.6,5.6,7.6c2.3,0,4.4-1.7,5-4.5c0.1-0.5,0.2-1,0.2-1.6V107.8z"/>
	<path class="st1" d="M120.8,110.4c0.1,5.1,3,7.1,6.4,7.1c2.4,0,3.9-0.5,5.2-1.1l0.6,2.7c-1.2,0.6-3.3,1.3-6.3,1.3
		c-5.8,0-9.2-4.2-9.2-10.4s3.3-11.1,8.8-11.1c6.1,0,7.8,5.9,7.8,9.7c0,0.8-0.1,1.4-0.1,1.7H120.8z M130.9,107.7
		c0-2.4-0.9-6.1-4.7-6.1c-3.5,0-5,3.5-5.2,6.1H130.9z"/>
	<path class="st1" d="M146.7,91.7c2.1-0.3,4.5-0.6,7.2-0.6c4.9,0,8.3,1.2,10.6,3.6c2.3,2.3,3.7,5.7,3.7,10.3c0,4.7-1.3,8.5-3.8,11.1
		c-2.4,2.7-6.5,4.1-11.6,4.1c-2.4,0-4.4-0.1-6.1-0.3V91.7z M150.1,117c0.9,0.2,2.1,0.2,3.4,0.2c7.2,0,11.1-4.4,11.1-12.2
		c0-6.8-3.5-11.1-10.6-11.1c-1.7,0-3.1,0.2-4,0.4V117z"/>
	<path class="st1" d="M182.9,120l-0.3-2.6h-0.1c-1,1.6-3.1,3.1-5.7,3.1c-3.8,0-5.7-2.9-5.7-5.9c0-5,4-7.7,11.3-7.7v-0.4
		c0-1.7-0.4-4.8-4.3-4.8c-1.7,0-3.6,0.6-4.9,1.5l-0.8-2.5c1.6-1.1,3.8-1.8,6.2-1.8c5.7,0,7.1,4.3,7.1,8.4v7.7c0,1.8,0.1,3.5,0.3,4.9
		H182.9z M182.4,109.5c-3.7-0.1-8,0.6-8,4.6c0,2.4,1.5,3.6,3.2,3.6c2.4,0,4-1.7,4.5-3.4c0.1-0.4,0.2-0.8,0.2-1.2V109.5z"/>
	<path class="st1" d="M195,93.6c0,1.3-0.8,2.3-2.2,2.3c-1.2,0-2.1-1-2.1-2.3c0-1.3,0.9-2.3,2.1-2.3C194.2,91.3,195,92.3,195,93.6z
		 M191.2,120V99.4h3.4V120H191.2z"/>
	<path class="st1" d="M200.3,105.8c0-2.4,0-4.5-0.2-6.4h3l0.1,4h0.2c0.9-2.8,2.9-4.5,5.2-4.5c0.4,0,0.7,0,1,0.1v3.5
		c-0.3-0.1-0.7-0.1-1.2-0.1c-2.4,0-4.1,2-4.6,4.8c-0.1,0.5-0.2,1.1-0.2,1.7v11h-3.4V105.8z"/>
	<path class="st1" d="M215.2,99.4l4.1,12.2c0.4,1.4,0.9,3,1.2,4.2h0.1c0.3-1.2,0.7-2.8,1.2-4.3l3.7-12.1h3.6l-5.1,14.7
		c-2.4,7.1-4.1,10.7-6.4,12.9c-1.7,1.6-3.3,2.3-4.2,2.4l-0.9-3.1c0.9-0.3,2-0.9,3-1.8c0.9-0.8,2.1-2.3,2.9-4.2
		c0.2-0.4,0.3-0.7,0.3-0.9s-0.1-0.5-0.2-1l-7-19H215.2z"/>
</g>
<path class="st2" d="M178.9,3.2c-1.8-0.1-3.6-0.1-5.3-0.1v0h-28.9v70.1h28.9V29.6c0.7,0,1.5,0,2.2,0c39.6,0,71.8,26.9,71.8,60
	c0,18.6-10.1,35.1-25.9,46.1h38.7c9.8-12.5,15.8-27.3,16.6-43.3C279.3,45.2,235.4,5.2,178.9,3.2z"/>
</svg>
